<svg width="145" height="146" viewBox="0 0 145 146" fill="none" xmlns="http://www.w3.org/2000/svg">
<g clip-path="url(#clip0)">
<path fill-rule="evenodd" clip-rule="evenodd" d="M100.92 0.0668869C89.8299 0.479227 80.0085 3.91582 72.4915 9.8571C64.9759 3.91582 55.1545 0.479227 44.063 0.0668869L44.1181 38.6048C44.0681 4.53114 44.063 13.3575 44.063 42.2163C44.063 50.3124 50.7135 56.9367 58.8418 56.9367H86.1554C94.2837 56.9367 100.934 50.3124 100.934 42.2163C100.934 -22.2161 100.827 63.8903 100.918 0.0668869H100.92ZM69.7449 12.2392C70.6998 12.9694 71.6162 13.7431 72.4915 14.5614C73.3669 13.7431 74.2846 12.9694 75.2381 12.2392C81.335 7.57838 88.9904 4.74944 97.4929 3.89923L97.4378 38.8422C97.5288 -19.6935 97.4327 8.712 97.4327 40.5414C97.4327 47.6405 91.6011 53.449 84.4738 53.449H60.5247C53.3973 53.449 47.5658 47.6405 47.5658 40.5414C47.5658 -43.9157 47.6106 81.1052 47.4889 3.89923C55.9914 4.74944 63.6468 7.57965 69.7437 12.2392H69.7449Z" fill="#FB992F" stroke="#FB992F" stroke-width="0.00691563" stroke-miterlimit="2.61313"/>
<path fill-rule="evenodd" clip-rule="evenodd" d="M89.4221 33.2076C86.6012 39.7604 80.0673 44.3498 72.4555 44.3498C65.141 44.3498 58.8199 40.1102 55.8349 33.9634C54.2431 30.6838 54.4174 30.731 56.7987 30.8064C58.7686 30.8689 58.0637 31.1153 59.0147 32.9332C61.5409 37.76 66.6111 41.0574 72.4555 41.0574C78.3665 41.0574 83.4868 37.6847 85.9822 32.7659C87.0562 30.6493 86.1577 30.8306 88.6249 30.8306C90.7692 30.8306 90.4039 30.9238 89.4209 33.2076H89.4221Z" fill="#FB992F" stroke="#FB992F" stroke-width="0.00691563" stroke-miterlimit="2.61313"/>
</g>
<path d="M45.0703 102.793C45.0703 105.113 44.7656 107.352 44.1562 109.508C43.5703 111.641 42.7266 113.645 41.625 115.52C40.5234 117.371 39.2109 119.07 37.6875 120.617C36.1641 122.141 34.4648 123.453 32.5898 124.555C30.7148 125.656 28.6992 126.512 26.543 127.121C24.4102 127.707 22.1836 128 19.8633 128H4.67578V77.5859H19.8633C22.1836 77.5859 24.4102 77.8906 26.543 78.5C28.6992 79.0859 30.7148 79.9297 32.5898 81.0312C34.4648 82.1328 36.1641 83.457 37.6875 85.0039C39.2109 86.5273 40.5234 88.2266 41.625 90.1016C42.7266 91.9531 43.5703 93.957 44.1562 96.1133C44.7656 98.2461 45.0703 100.473 45.0703 102.793ZM34.9805 102.793C34.9805 100.707 34.582 98.75 33.7852 96.9219C33.0117 95.0938 31.9336 93.5 30.5508 92.1406C29.1914 90.7578 27.5859 89.668 25.7344 88.8711C23.9062 88.0742 21.9492 87.6758 19.8633 87.6758H14.8359V117.91H19.8633C21.9492 117.91 23.9062 117.523 25.7344 116.75C27.5859 115.953 29.1914 114.875 30.5508 113.516C31.9336 112.133 33.0117 110.527 33.7852 108.699C34.582 106.848 34.9805 104.879 34.9805 102.793ZM61.7859 80.1172C61.7859 81.0078 61.6102 81.8398 61.2586 82.6133C60.9305 83.3867 60.4734 84.0664 59.8875 84.6523C59.3016 85.2148 58.6102 85.6719 57.8133 86.0234C57.0398 86.3516 56.2078 86.5156 55.3172 86.5156C54.4266 86.5156 53.5828 86.3516 52.7859 86.0234C52.0125 85.6719 51.3328 85.2148 50.7469 84.6523C50.1844 84.0664 49.7273 83.3867 49.3758 82.6133C49.0477 81.8398 48.8836 81.0078 48.8836 80.1172C48.8836 79.25 49.0477 78.4297 49.3758 77.6562C49.7273 76.8594 50.1844 76.1797 50.7469 75.6172C51.3328 75.0312 52.0125 74.5742 52.7859 74.2461C53.5828 73.8945 54.4266 73.7188 55.3172 73.7188C56.2078 73.7188 57.0398 73.8945 57.8133 74.2461C58.6102 74.5742 59.3016 75.0312 59.8875 75.6172C60.4734 76.1797 60.9305 76.8594 61.2586 77.6562C61.6102 78.4297 61.7859 79.25 61.7859 80.1172ZM60.1336 128H50.4656V90.3477H60.1336V128ZM93.9703 108.84C93.9703 107.527 93.7125 106.262 93.1969 105.043C92.7047 103.801 92.025 102.711 91.1578 101.773C90.2906 100.812 89.2711 100.051 88.0992 99.4883C86.9508 98.9023 85.7203 98.6094 84.4078 98.6094C83.0953 98.6094 81.8531 98.832 80.6813 99.2773C79.5328 99.7227 78.525 100.379 77.6578 101.246C76.8141 102.113 76.1461 103.191 75.6539 104.48C75.1617 105.746 74.9156 107.199 74.9156 108.84C74.9156 110.41 75.1617 111.828 75.6539 113.094C76.1461 114.336 76.8141 115.402 77.6578 116.293C78.525 117.184 79.5328 117.875 80.6813 118.367C81.8531 118.836 83.0953 119.07 84.4078 119.07C85.7203 119.07 86.9508 118.789 88.0992 118.227C89.2711 117.641 90.2906 116.879 91.1578 115.941C92.025 114.98 92.7047 113.891 93.1969 112.672C93.7125 111.43 93.9703 110.152 93.9703 108.84ZM103.638 123.254C103.638 125.902 103.134 128.387 102.127 130.707C101.119 133.027 99.7359 135.055 97.9781 136.789C96.2438 138.523 94.2047 139.895 91.8609 140.902C89.5406 141.91 87.0563 142.414 84.4078 142.414L79.5914 142.344V132.746L84.3375 132.816C85.8375 132.816 87.1148 132.617 88.1695 132.219C89.2242 131.844 90.1148 131.316 90.8414 130.637C91.568 129.98 92.1422 129.219 92.5641 128.352C93.0094 127.484 93.3609 126.57 93.6188 125.609C93.2438 126.219 92.7047 126.723 92.0016 127.121C91.2984 127.496 90.5133 127.801 89.6461 128.035C88.8023 128.293 87.9117 128.469 86.9742 128.562C86.0602 128.656 85.2047 128.703 84.4078 128.703C81.7594 128.703 79.2633 128.246 76.9195 127.332C74.5992 126.418 72.5602 125.117 70.8023 123.43C69.068 121.719 67.6969 119.633 66.6891 117.172C65.6813 114.711 65.1773 111.934 65.1773 108.84C65.1773 106.004 65.6813 103.367 66.6891 100.93C67.6969 98.4922 69.068 96.3828 70.8023 94.6016C72.5602 92.8203 74.5992 91.4258 76.9195 90.418C79.2633 89.4102 81.7594 88.9062 84.4078 88.9062C85.6266 88.9062 86.8336 89.0586 88.0289 89.3633C89.2242 89.668 90.3844 90.0898 91.5094 90.6289C92.6344 91.168 93.7008 91.8008 94.7086 92.5273C95.7398 93.2539 96.7008 94.0391 97.5914 94.8828L101.318 90.418H103.638V123.254ZM131.358 128H109.42V118.438H131.358C132.014 118.438 132.577 118.203 133.045 117.734C133.514 117.266 133.748 116.703 133.748 116.047C133.748 115.367 133.514 114.922 133.045 114.711C132.577 114.5 132.014 114.395 131.358 114.395H121.373C119.709 114.395 118.151 114.078 116.698 113.445C115.245 112.812 113.979 111.957 112.901 110.879C111.823 109.777 110.967 108.5 110.334 107.047C109.725 105.594 109.42 104.035 109.42 102.371C109.42 100.707 109.725 99.1484 110.334 97.6953C110.967 96.2422 111.823 94.9766 112.901 93.8984C113.979 92.8203 115.245 91.9766 116.698 91.3672C118.151 90.7344 119.709 90.418 121.373 90.418H140.815V99.9805H121.373C120.717 99.9805 120.155 100.215 119.686 100.684C119.217 101.152 118.983 101.715 118.983 102.371C118.983 103.051 119.217 103.637 119.686 104.129C120.155 104.598 120.717 104.832 121.373 104.832H131.358C132.998 104.832 134.545 105.113 135.998 105.676C137.452 106.215 138.717 106.977 139.795 107.961C140.873 108.945 141.729 110.129 142.362 111.512C142.995 112.895 143.311 114.406 143.311 116.047C143.311 117.711 142.995 119.27 142.362 120.723C141.729 122.152 140.873 123.418 139.795 124.52C138.717 125.598 137.452 126.453 135.998 127.086C134.545 127.695 132.998 128 131.358 128Z" fill="#F7F8FC"/>
<defs>
<clipPath id="clip0">
<rect width="57" height="57" fill="white" transform="translate(44)"/>
</clipPath>
</defs>
</svg>
