<svg width="375" height="191" viewBox="0 0 375 191" fill="none" xmlns="http://www.w3.org/2000/svg">
<path d="M100.816 99.4033L99.8541 99.1314L99.8521 99.1384L100.816 99.4033ZM93.8906 115.852L94.75 116.363L94.7528 116.359L93.8906 115.852ZM83.1172 129.8L83.8243 130.507L83.8297 130.501L83.1172 129.8ZM52.6245 147.595L52.8894 148.56L52.8965 148.558L52.6245 147.595ZM-7.20654 150H-8.20654V151H-7.20654V150ZM-7.20654 12.0615V11.0615H-8.20654V12.0615H-7.20654ZM52.6245 14.5625L52.3498 15.5241L52.3623 15.5275L52.6245 14.5625ZM69.1694 21.4883L69.676 20.6261L69.1694 21.4883ZM83.1172 32.3579L82.4047 33.0596L82.4101 33.065L83.1172 32.3579ZM93.8906 46.3057L93.0284 46.8122L93.0312 46.817L93.8906 46.3057ZM100.816 62.7544L99.8513 63.0166L99.8549 63.0291L100.816 62.7544ZM72.4399 64.9668L71.5189 65.3565L71.5232 65.3664L72.4399 64.9668ZM63.5903 51.8848L62.8772 52.5858L62.8832 52.5919L62.8893 52.5979L63.5903 51.8848ZM50.4121 42.939L50.0125 43.8557L50.0168 43.8575L50.4121 42.939ZM20.5928 39.6685V38.6685H19.5928V39.6685H20.5928ZM20.5928 122.393H19.5928V123.393H20.5928V122.393ZM50.4121 119.219L50.8018 120.14L50.8074 120.137L50.4121 119.219ZM63.5903 110.369L62.8832 109.662L63.5903 110.369ZM72.4399 97.1909L71.5214 96.7956L71.519 96.8013L72.4399 97.1909ZM102.317 81.0308C102.317 87.2907 101.496 93.3232 99.8541 99.1314L101.779 99.6753C103.472 93.6839 104.317 87.4681 104.317 81.0308H102.317ZM99.8521 99.1384C98.2718 104.891 95.9972 110.292 93.0284 115.346L94.7528 116.359C97.8121 111.151 100.155 105.587 101.781 99.6682L99.8521 99.1384ZM93.0312 115.341C90.0587 120.337 86.517 124.923 82.4047 129.098L83.8297 130.501C88.054 126.212 91.6946 121.499 94.75 116.363L93.0312 115.341ZM82.4101 129.093C78.3024 133.2 73.7206 136.74 68.6629 139.711L69.676 141.435C74.8787 138.379 79.5954 134.736 83.8243 130.507L82.4101 129.093ZM68.6629 139.711C63.6085 142.68 58.1727 144.988 52.3526 146.633L52.8965 148.558C58.8759 146.868 64.47 144.494 69.676 141.435L68.6629 139.711ZM52.3596 146.631C46.6144 148.209 40.6117 149 34.3481 149V151C40.7819 151 46.9634 150.188 52.8894 148.559L52.3596 146.631ZM34.3481 149H-7.20654V151H34.3481V149ZM-6.20654 150V12.0615H-8.20654V150H-6.20654ZM-7.20654 13.0615H34.3481V11.0615H-7.20654V13.0615ZM34.3481 13.0615C40.6082 13.0615 46.6076 13.8834 52.3498 15.524L52.8992 13.601C46.9702 11.907 40.7854 11.0615 34.3481 11.0615V13.0615ZM52.3623 15.5275C58.1788 17.1081 63.6113 19.3827 68.6629 22.3505L69.676 20.6261C64.4672 17.5659 58.8698 15.2233 52.8867 13.5975L52.3623 15.5275ZM68.6629 22.3505C73.7179 25.3203 78.2978 28.8896 82.4047 33.0596L83.8297 31.6562C79.5999 27.3614 74.8814 23.6843 69.676 20.6261L68.6629 22.3505ZM82.4101 33.065C86.5178 37.1727 90.057 41.7545 93.0284 46.8122L94.7528 45.7991C91.6963 40.5964 88.0532 35.8797 83.8243 31.6508L82.4101 33.065ZM93.0312 46.817C95.9972 51.8023 98.2711 57.201 99.8514 63.0166L101.781 62.4922C100.155 56.5083 97.812 50.9412 94.75 45.7944L93.0312 46.817ZM99.8549 63.0291C101.496 68.7714 102.317 74.7708 102.317 81.0308H104.317C104.317 74.5935 103.472 68.4087 101.778 62.4797L99.8549 63.0291ZM76.7104 81.0308C76.7104 75.1924 75.5944 69.701 73.3566 64.5672L71.5232 65.3664C73.6461 70.2365 74.7104 75.4545 74.7104 81.0308H76.7104ZM73.3609 64.5772C71.1946 59.4569 68.171 54.9856 64.2914 51.1716L62.8893 52.5979C66.5767 56.2228 69.4528 60.4728 71.519 65.3564L73.3609 64.5772ZM64.3035 51.1837C60.4896 47.3041 55.9877 44.2499 50.8074 42.0204L50.0168 43.8575C54.9686 45.9887 59.2522 48.8983 62.8772 52.5858L64.3035 51.1837ZM50.8117 42.0223C45.6779 39.7845 40.1866 38.6685 34.3481 38.6685V40.6685C39.9244 40.6685 45.1424 41.7328 50.0125 43.8557L50.8117 42.0223ZM34.3481 38.6685H20.5928V40.6685H34.3481V38.6685ZM19.5928 39.6685V122.393H21.5928V39.6685H19.5928ZM20.5928 123.393H34.3481V121.393H20.5928V123.393ZM34.3481 123.393C40.1824 123.393 45.6703 122.311 50.8017 120.14L50.0225 118.298C45.15 120.359 39.9286 121.393 34.3481 121.393V123.393ZM50.8074 120.137C55.9842 117.909 60.4841 114.89 64.2974 111.076L62.8832 109.662C59.2577 113.288 54.9722 116.167 50.0168 118.3L50.8074 120.137ZM64.2974 111.076C68.1734 107.2 71.1953 102.699 73.3609 97.5806L71.519 96.8013C69.4522 101.686 66.5743 105.971 62.8832 109.662L64.2974 111.076ZM73.3585 97.5862C75.5944 92.3909 76.7104 86.8692 76.7104 81.0308H74.7104C74.7104 86.607 73.6461 91.8588 71.5214 96.7956L73.3585 97.5862ZM148.131 25.8169L147.221 25.4031L147.216 25.4147L147.211 25.4263L148.131 25.8169ZM144.38 31.396L145.072 32.1174L145.08 32.1103L145.087 32.1031L144.38 31.396ZM138.704 35.1475L139.095 36.068L139.102 36.0653L139.108 36.0624L138.704 35.1475ZM124.949 35.1475L124.535 36.0578L124.552 36.0653L124.568 36.0721L124.949 35.1475ZM119.37 31.396L118.649 32.0885L118.663 32.1033L118.677 32.1174L119.37 31.396ZM115.618 25.8169L114.698 26.2074L114.703 26.2191L114.708 26.2307L115.618 25.8169ZM115.618 12.2539L114.704 11.8503L114.701 11.8568L114.698 11.8634L115.618 12.2539ZM119.37 6.6748L120.077 7.38191L119.37 6.6748ZM124.949 2.92334L125.34 3.84392L125.346 3.84114L125.353 3.83826L124.949 2.92334ZM138.704 2.92334L138.291 3.83371L138.307 3.84116L138.324 3.84802L138.704 2.92334ZM144.38 6.6748L143.673 7.38191L143.68 7.38913L143.687 7.39619L144.38 6.6748ZM148.131 12.2539L147.206 12.6347L147.213 12.6513L147.221 12.6677L148.131 12.2539ZM145.053 150V151H146.053V150H145.053ZM118.6 150H117.6V151H118.6V150ZM118.6 46.979V45.979H117.6V46.979H118.6ZM145.053 46.979H146.053V45.979H145.053V46.979ZM148.574 18.9873C148.574 21.2885 148.121 23.4231 147.221 25.4031L149.042 26.2307C150.065 23.9783 150.574 21.5599 150.574 18.9873H148.574ZM147.211 25.4263C146.362 27.426 145.184 29.1778 143.673 30.6889L145.087 32.1031C146.782 30.4078 148.104 28.4402 149.052 26.2074L147.211 25.4263ZM143.687 30.6746C142.174 32.1271 140.382 33.3143 138.301 34.2325L139.108 36.0624C141.387 35.0567 143.379 33.743 145.072 32.1174L143.687 30.6746ZM138.314 34.2269C136.328 35.0692 134.186 35.4941 131.875 35.4941V37.4941C134.438 37.4941 136.848 37.0213 139.095 36.068L138.314 34.2269ZM131.875 35.4941C129.564 35.4941 127.385 35.0692 125.33 34.2228L124.568 36.0721C126.873 37.0213 129.312 37.4941 131.875 37.4941V35.4941ZM125.363 34.2371C123.345 33.3198 121.58 32.1318 120.062 30.6746L118.677 32.1174C120.366 33.7383 122.321 35.0513 124.535 36.0578L125.363 34.2371ZM120.091 30.7035C118.634 29.1855 117.446 27.4212 116.529 25.4031L114.708 26.2307C115.715 28.4451 117.028 30.4001 118.649 32.0885L120.091 30.7035ZM116.539 25.4263C115.697 23.441 115.272 21.2981 115.272 18.9873H113.272C113.272 21.5502 113.745 23.9604 114.698 26.2074L116.539 25.4263ZM115.272 18.9873C115.272 16.7444 115.695 14.6331 116.539 12.6445L114.698 11.8634C113.746 14.1071 113.272 16.4848 113.272 18.9873H115.272ZM116.533 12.6575C117.45 10.5796 118.633 8.82559 120.077 7.38191L118.663 5.9677C117.028 7.60214 115.711 9.56755 114.704 11.8503L116.533 12.6575ZM120.077 7.38191C121.588 5.87084 123.34 4.69226 125.34 3.84392L124.558 2.00276C122.326 2.95 120.358 4.27239 118.663 5.9677L120.077 7.38191ZM125.353 3.83826C127.403 2.93373 129.574 2.48047 131.875 2.48047V0.480469C129.302 0.480469 126.856 0.989117 124.545 2.00842L125.353 3.83826ZM131.875 2.48047C134.176 2.48047 136.311 2.93371 138.291 3.83371L139.118 2.01297C136.866 0.989139 134.447 0.480469 131.875 0.480469V2.48047ZM138.324 3.84802C140.387 4.69759 142.166 5.87581 143.673 7.38191L145.087 5.9677C143.387 4.26742 141.383 2.94467 139.085 1.99866L138.324 3.84802ZM143.687 7.39619C145.184 8.83327 146.358 10.5748 147.206 12.6347L149.056 11.8732C148.108 9.57235 146.782 7.59447 145.072 5.95342L143.687 7.39619ZM147.221 12.6677C148.122 14.6512 148.574 16.7543 148.574 18.9873H150.574C150.574 16.4749 150.064 14.089 149.042 11.8401L147.221 12.6677ZM145.053 149H118.6V151H145.053V149ZM119.6 150V46.979H117.6V150H119.6ZM118.6 47.979H145.053V45.979H118.6V47.979ZM144.053 46.979V150H146.053V46.979H144.053ZM236.039 87.187L235.109 87.5554L235.113 87.5661L235.118 87.5767L236.039 87.187ZM230.46 78.2412L229.717 78.9112L229.725 78.9203L230.46 78.2412ZM222.091 71.9888L221.636 72.8795L221.647 72.885L221.658 72.8903L222.091 71.9888ZM201.795 71.4116L201.439 70.4768L201.433 70.4793L201.795 71.4116ZM193.522 76.7983L192.815 76.0912L192.805 76.101L193.522 76.7983ZM188.039 85.6479L188.971 86.0104L188.973 86.0047L188.039 85.6479ZM188.039 109.215L187.107 109.577L187.109 109.583L188.039 109.215ZM193.522 117.968L192.796 118.656L192.806 118.666L193.522 117.968ZM201.795 123.644L201.401 124.563L201.412 124.568L201.423 124.572L201.795 123.644ZM222.091 123.259L222.531 124.157L222.538 124.153L222.091 123.259ZM230.46 117.006L231.194 117.685L231.202 117.676L230.46 117.006ZM236.039 108.061L235.115 107.677L235.111 107.686L236.039 108.061ZM249.121 174.048L248.418 173.336L248.414 173.341L249.121 174.048ZM232.383 185.302L231.988 184.384L231.985 184.385L232.383 185.302ZM211.991 189.438L211.976 190.438L211.984 190.438H211.991V189.438ZM198.813 189.246H197.813V190.232L198.798 190.246L198.813 189.246ZM198.813 162.986L198.827 161.986L197.813 161.971V162.986H198.813ZM211.798 163.178L211.784 164.178L211.791 164.178H211.798V163.178ZM222.283 161.543L221.948 160.601L221.939 160.604L221.93 160.607L222.283 161.543ZM229.594 157.214L228.924 156.472L228.917 156.478L228.911 156.484L229.594 157.214ZM234.307 150.962L233.418 150.505L233.413 150.515L233.408 150.524L234.307 150.962ZM237.193 143.459L238.159 143.718L236.341 142.935L237.193 143.459ZM232.768 147.595L233.239 148.478L233.25 148.472L233.261 148.465L232.768 147.595ZM226.323 150.096L226.062 149.131L226.047 149.135L226.031 149.14L226.323 150.096ZM219.013 151.539L218.913 150.544L218.911 150.544L219.013 151.539ZM191.502 148.172L191.136 149.103L191.139 149.104L191.502 148.172ZM174.765 137.495L174.062 138.207L174.072 138.217L174.765 137.495ZM163.51 120.373L162.585 120.752L163.51 120.373ZM163.51 75.9326L162.586 75.5505L163.51 75.9326ZM174.765 58.6182L174.053 57.9157L174.048 57.9205L174.765 58.6182ZM191.502 47.1714L191.107 46.2527L191.104 46.2542L191.502 47.1714ZM240.175 52.9429L239.59 53.7541L239.599 53.7604L240.175 52.9429ZM248.063 59.3877L247.375 60.1136L248.148 60.846L248.83 60.0285L248.063 59.3877ZM258.259 47.1714V46.1714H257.791L257.491 46.5306L258.259 47.1714ZM264.608 47.1714H265.608V46.1714H264.608V47.1714ZM239.155 97.5757C239.155 93.8495 238.422 90.2542 236.96 86.7974L235.118 87.5767C236.477 90.7891 237.155 94.1195 237.155 97.5757H239.155ZM236.968 86.8186C235.578 83.3105 233.654 80.222 231.194 77.5622L229.725 78.9203C232.011 81.3906 233.806 84.266 235.109 87.5554L236.968 86.8186ZM231.202 77.5712C228.742 74.845 225.847 72.6824 222.524 71.0872L221.658 72.8903C224.748 74.3733 227.432 76.379 229.717 78.9112L231.202 77.5712ZM222.545 71.098C219.26 69.4217 215.737 68.584 211.991 68.584V70.584C215.427 70.584 218.638 71.3495 221.636 72.8795L222.545 71.098ZM211.991 68.584C208.284 68.584 204.764 69.2133 201.439 70.4768L202.15 72.3464C205.237 71.1731 208.515 70.584 211.991 70.584V68.584ZM201.433 70.4793C198.162 71.7477 195.286 73.6198 192.815 76.0912L194.229 77.5054C196.503 75.2315 199.143 73.5124 202.156 72.344L201.433 70.4793ZM192.805 76.101C190.389 78.584 188.493 81.6548 187.105 85.2912L188.973 86.0047C190.278 82.587 192.038 79.7581 194.239 77.4957L192.805 76.101ZM187.107 85.2855C185.707 88.8853 185.019 92.9879 185.019 97.5757H187.019C187.019 93.1856 187.678 89.3364 188.971 86.0104L187.107 85.2855ZM185.019 97.5757C185.019 101.977 185.709 105.982 187.107 109.577L188.971 108.852C187.676 105.522 187.019 101.767 187.019 97.5757H185.019ZM187.109 109.583C188.499 113.09 190.392 116.119 192.796 118.656L194.248 117.281C192.035 114.944 190.273 112.137 188.969 108.846L187.109 109.583ZM192.806 118.666C195.271 121.198 198.138 123.164 201.401 124.563L202.188 122.724C199.167 121.429 196.519 119.613 194.239 117.271L192.806 118.666ZM201.423 124.572C204.752 125.904 208.278 126.567 211.991 126.567V124.567C208.522 124.567 205.249 123.949 202.166 122.715L201.423 124.572ZM211.991 126.567C215.73 126.567 219.248 125.765 222.531 124.157L221.651 122.361C218.649 123.831 215.434 124.567 211.991 124.567V126.567ZM222.538 124.153C225.849 122.498 228.737 120.341 231.194 117.685L229.725 116.327C227.437 118.802 224.745 120.814 221.644 122.364L222.538 124.153ZM231.202 117.676C233.654 114.959 235.576 111.876 236.966 108.435L235.111 107.686C233.808 110.914 232.01 113.795 229.717 116.336L231.202 117.676ZM236.962 108.444C238.422 104.927 239.155 101.302 239.155 97.5757H237.155C237.155 101.032 236.477 104.397 235.115 107.677L236.962 108.444ZM263.608 137.014C263.608 144.13 262.254 150.791 259.554 157.008L261.389 157.805C264.203 151.325 265.608 144.391 265.608 137.014H263.608ZM259.554 157.008C256.846 163.243 253.135 168.683 248.418 173.336L249.823 174.76C254.726 169.922 258.581 164.268 261.389 157.805L259.554 157.008ZM248.414 173.341C243.761 177.993 238.289 181.674 231.988 184.384L232.778 186.221C239.303 183.415 244.989 179.594 249.828 174.755L248.414 173.341ZM231.985 184.385C225.768 187.085 219.107 188.438 211.991 188.438V190.438C219.368 190.438 226.302 189.034 232.782 186.219L231.985 184.385ZM212.005 188.439L198.827 188.246L198.798 190.246L211.976 190.438L212.005 188.439ZM199.813 189.246V162.986H197.813V189.246H199.813ZM198.798 163.986L211.784 164.178L211.813 162.178L198.827 161.986L198.798 163.986ZM211.798 164.178C215.986 164.178 219.608 163.623 222.637 162.478L221.93 160.607C219.188 161.643 215.819 162.178 211.798 162.178V164.178ZM222.618 162.485C225.617 161.419 228.177 159.909 230.277 157.945L228.911 156.484C227.035 158.239 224.721 159.615 221.948 160.601L222.618 162.485ZM230.264 157.956C232.346 156.076 233.995 153.889 235.206 151.399L233.408 150.524C232.311 152.78 230.818 154.761 228.924 156.472L230.264 157.956ZM235.197 151.419C236.448 148.982 237.435 146.414 238.159 143.718L236.227 143.2C235.54 145.762 234.603 148.197 233.418 150.505L235.197 151.419ZM236.341 142.935C235.415 144.441 234.071 145.707 232.275 146.725L233.261 148.465C235.313 147.303 236.919 145.812 238.045 143.983L236.341 142.935ZM232.298 146.713C230.448 147.699 228.371 148.507 226.062 149.131L226.584 151.062C229.021 150.403 231.241 149.543 233.239 148.478L232.298 146.713ZM226.031 149.14C223.789 149.825 221.417 150.294 218.913 150.544L219.112 152.534C221.738 152.271 224.24 151.778 226.616 151.053L226.031 149.14ZM218.911 150.544C216.439 150.798 214.132 150.924 211.991 150.924V152.924C214.21 152.924 216.585 152.793 219.115 152.534L218.911 150.544ZM211.991 150.924C204.862 150.924 198.156 149.694 191.865 147.241L191.139 149.104C197.673 151.653 204.627 152.924 211.991 152.924V150.924ZM191.869 147.242C185.638 144.788 180.171 141.299 175.457 136.774L174.072 138.217C178.978 142.926 184.669 146.555 191.136 149.103L191.869 147.242ZM175.467 136.783C170.826 132.205 167.147 126.614 164.436 119.994L162.585 120.752C165.389 127.599 169.212 133.423 174.062 138.207L175.467 136.783ZM164.436 119.994C161.735 113.399 160.374 105.932 160.374 97.5757H158.374C158.374 106.15 159.771 113.88 162.585 120.752L164.436 119.994ZM160.374 97.5757C160.374 89.9374 161.731 82.8539 164.434 76.3147L162.586 75.5505C159.775 82.3498 158.374 89.6951 158.374 97.5757H160.374ZM164.434 76.3147C167.146 69.7556 170.83 64.093 175.481 59.3158L174.048 57.9205C169.209 62.8907 165.389 68.7711 162.586 75.5505L164.434 76.3147ZM175.477 59.3206C180.195 54.5389 185.668 50.7957 191.9 48.0886L191.104 46.2542C184.639 49.062 178.953 52.9501 174.053 57.9158L175.477 59.3206ZM191.897 48.0901C198.18 45.3883 204.875 44.0352 211.991 44.0352V42.0352C204.614 42.0352 197.649 43.4395 191.107 46.2527L191.897 48.0901ZM211.991 44.0352C215.241 44.0352 218.461 44.4413 221.652 45.2547L222.146 43.3166C218.795 42.4626 215.41 42.0352 211.991 42.0352V44.0352ZM221.652 45.2547C224.858 46.0719 227.97 47.2035 230.989 48.6504L231.854 46.8467C228.717 45.3437 225.481 44.1667 222.146 43.3166L221.652 45.2547ZM230.989 48.6504C234.014 50.0998 236.881 51.8009 239.59 53.754L240.76 52.1317C237.954 50.1089 234.985 48.3472 231.854 46.8467L230.989 48.6504ZM239.599 53.7604C242.382 55.7213 244.974 57.8391 247.375 60.1136L248.75 58.6617C246.278 56.3191 243.611 54.1403 240.751 52.1254L239.599 53.7604ZM248.83 60.0285L259.027 47.8122L257.491 46.5306L247.295 58.7469L248.83 60.0285ZM258.259 48.1714H264.608V46.1714H258.259V48.1714ZM263.608 47.1714V137.014H265.608V47.1714H263.608ZM280.949 150H279.949V151H280.949V150ZM280.949 123.836V122.836H279.949V123.836H280.949ZM290.472 103.155L289.757 103.854L289.764 103.862L290.472 103.155ZM283.45 92.6699L282.527 93.0567L282.533 93.0692L283.45 92.6699ZM283.45 67.083L282.533 66.6837L282.527 66.6963L283.45 67.083ZM300.86 49.7686L301.247 50.6908L301.26 50.6854L300.86 49.7686ZM366.848 47.1714H367.848V46.1714H366.848V47.1714ZM366.848 73.3354V74.3354H367.848V73.3354H366.848ZM309.037 84.686L308.312 85.3757L308.321 85.3845L308.329 85.3931L309.037 84.686ZM353.669 88.9185L353.308 89.8511L353.322 89.856L353.669 88.9185ZM371.08 130.088L371.994 130.493L371.997 130.488L371.08 130.088ZM364.058 140.477L364.765 141.184L364.773 141.177L364.058 140.477ZM353.669 147.499L354.056 148.421L354.069 148.416L353.669 147.499ZM340.972 149H280.949V151H340.972V149ZM281.949 150V123.836H279.949V150H281.949ZM280.949 124.836H340.972V122.836H280.949V124.836ZM340.972 124.836C343.036 124.836 344.828 124.087 346.296 122.619L344.882 121.205C343.785 122.302 342.499 122.836 340.972 122.836V124.836ZM346.296 122.619C347.764 121.151 348.513 119.359 348.513 117.295H346.513C346.513 118.822 345.979 120.108 344.882 121.205L346.296 122.619ZM348.513 117.295C348.513 115.193 347.761 113.521 346 112.728L345.179 114.552C345.982 114.913 346.513 115.677 346.513 117.295H348.513ZM346 112.728C344.558 112.079 342.871 111.774 340.972 111.774V113.774C342.664 113.774 344.056 114.046 345.179 114.552L346 112.728ZM340.972 111.774H313.654V113.774H340.972V111.774ZM313.654 111.774C309.231 111.774 305.103 110.934 301.26 109.26L300.461 111.094C304.569 112.883 308.97 113.774 313.654 113.774V111.774ZM301.26 109.26C297.394 107.576 294.037 105.305 291.179 102.448L289.764 103.862C292.806 106.904 296.375 109.314 300.461 111.094L301.26 109.26ZM291.186 102.455C288.324 99.5307 286.051 96.1382 284.366 92.2707L282.533 93.0692C284.311 97.1534 286.72 100.751 289.757 103.854L291.186 102.455ZM284.372 92.2832C282.759 88.4365 281.949 84.3043 281.949 79.8765H279.949C279.949 84.5548 280.806 88.9515 282.527 93.0566L284.372 92.2832ZM281.949 79.8765C281.949 75.4486 282.759 71.3164 284.372 67.4697L282.527 66.6963C280.806 70.8014 279.949 75.1982 279.949 79.8765H281.949ZM284.366 67.4823C286.05 63.6166 288.321 60.2593 291.179 57.4014L289.764 55.9872C286.723 59.0292 284.312 62.5976 282.533 66.6837L284.366 67.4823ZM291.179 57.4014C294.034 54.5465 297.387 52.3096 301.247 50.6907L300.474 48.8464C296.382 50.5622 292.809 52.9425 289.764 55.9872L291.179 57.4014ZM301.26 50.6854C305.103 49.0115 309.231 48.1714 313.654 48.1714V46.1714C308.97 46.1714 304.569 47.0627 300.461 48.8517L301.26 50.6854ZM313.654 48.1714H366.848V46.1714H313.654V48.1714ZM365.848 47.1714V73.3354H367.848V47.1714H365.848ZM366.848 72.3354H313.654V74.3354H366.848V72.3354ZM313.654 72.3354C311.59 72.3354 309.797 73.0842 308.329 74.5522L309.744 75.9664C310.841 74.8692 312.126 74.3354 313.654 74.3354V72.3354ZM308.329 74.5522C306.861 76.0201 306.113 77.8127 306.113 79.8765H308.113C308.113 78.3491 308.646 77.0635 309.744 75.9664L308.329 74.5522ZM306.113 79.8765C306.113 81.9929 306.853 83.8431 308.312 85.3757L309.761 83.9964C308.655 82.8356 308.113 81.4794 308.113 79.8765H306.113ZM308.329 85.3931C309.797 86.8611 311.59 87.6099 313.654 87.6099V85.6099C312.126 85.6099 310.841 85.0761 309.744 83.9789L308.329 85.3931ZM313.654 87.6099H340.972V85.6099H313.654V87.6099ZM340.972 87.6099C345.344 87.6099 349.454 88.3589 353.308 89.851L354.03 87.9859C349.933 86.3999 345.578 85.6099 340.972 85.6099V87.6099ZM353.322 89.856C357.184 91.289 360.535 93.308 363.384 95.9094L364.732 94.4324C361.682 91.6471 358.106 89.4978 354.017 87.9809L353.322 89.856ZM363.384 95.9094C366.23 98.5084 368.493 101.636 370.171 105.302L371.989 104.47C370.204 100.57 367.785 97.2201 364.732 94.4324L363.384 95.9094ZM370.171 105.302C371.838 108.945 372.677 112.938 372.677 117.295H374.677C374.677 112.674 373.785 108.394 371.989 104.47L370.171 105.302ZM372.677 117.295C372.677 121.718 371.837 125.845 370.163 129.689L371.997 130.488C373.786 126.38 374.677 121.978 374.677 117.295H372.677ZM370.166 129.684C368.482 133.488 366.208 136.85 363.343 139.778L364.773 141.177C367.807 138.076 370.215 134.513 371.994 130.493L370.166 129.684ZM363.351 139.77C360.493 142.628 357.136 144.899 353.27 146.582L354.069 148.416C358.155 146.636 361.723 144.226 364.765 141.184L363.351 139.77ZM353.283 146.577C349.434 148.191 345.334 149 340.972 149V151C345.588 151 349.953 150.142 354.056 148.421L353.283 146.577Z" fill="#FB992F" fill-opacity="0.5"/>
</svg>
