<svg width="107" height="51" viewBox="0 0 107 51" fill="none" xmlns="http://www.w3.org/2000/svg">
<g filter="url(#filter0_d)">
<rect x="3" y="2" width="99" height="43" rx="10" fill="#F7F8FC"/>
</g>
<path d="M29.7713 31.18C32.7413 31.18 34.7393 29.668 34.7393 27.4C34.7393 25.006 32.5073 23.998 30.5273 23.422L29.6633 23.188C28.2953 22.792 27.1253 22.324 27.1253 21.046C27.1253 19.876 28.2053 19.084 29.8613 19.084C31.2473 19.084 32.3453 19.516 33.2993 20.362L34.1633 19.03C33.0293 18.022 31.6073 17.5 29.8613 17.5C27.0173 17.5 25.1273 19.03 25.1273 21.334C25.1273 23.476 26.7473 24.358 28.7633 24.916L29.5913 25.15C31.4453 25.69 32.7413 26.266 32.7413 27.58C32.7413 28.822 31.5713 29.596 29.6633 29.596C28.3493 29.596 27.0713 29.218 26.0093 28.264L25.2533 29.578C26.3513 30.658 28.0073 31.18 29.7713 31.18ZM43.8611 31H46.2011L41.7191 25.942L45.9671 21.388H43.6451L40.2251 25.186H38.7851V16.96H36.9491V31H38.7851V26.716H40.2071L43.8611 31ZM48.4495 19.39C49.0975 19.39 49.5835 18.904 49.5835 18.238C49.5835 17.572 49.0975 17.086 48.4495 17.086C47.7835 17.086 47.2975 17.572 47.2975 18.238C47.2975 18.904 47.7835 19.39 48.4495 19.39ZM47.5315 31H49.3675V21.388H47.5315V31ZM57.4654 21.208C55.7554 21.208 54.5854 21.946 53.9194 23.134L53.8654 21.388H52.1014V34.96H53.9374V29.29C54.6214 30.46 55.7734 31.18 57.4654 31.18C60.0934 31.18 62.0554 29.164 62.0554 26.158C62.0554 23.188 60.0934 21.208 57.4654 21.208ZM57.0334 29.596C55.1794 29.596 53.9374 28.228 53.9374 26.194C53.9374 24.16 55.1794 22.792 57.0334 22.792C58.9054 22.792 60.1474 24.142 60.1474 26.176C60.1474 28.228 58.9054 29.596 57.0334 29.596Z" fill="#0A123E" fill-opacity="0.6"/>
<path d="M70.7419 24.4989L66.6829 28.5579C66.3815 28.8593 66.3804 29.3554 66.6851 29.6601C66.992 29.967 67.4837 29.9659 67.7873 29.6623L72.3171 25.1325C72.4865 24.9631 72.5613 24.7321 72.5393 24.5077C72.5668 24.2789 72.492 24.0413 72.3171 23.8664L67.7873 19.3366C67.4859 19.0352 66.9898 19.033 66.6851 19.3377C66.3782 19.6446 66.3793 20.1363 66.6829 20.4399L70.7419 24.4989Z" fill="#0A123E" fill-opacity="0.6"/>
<path d="M76.7419 24.4989L72.6829 28.5579C72.3815 28.8593 72.3804 29.3554 72.6851 29.6601C72.992 29.967 73.4837 29.9659 73.7873 29.6623L78.3171 25.1325C78.4865 24.9631 78.5613 24.7321 78.5393 24.5077C78.5668 24.2789 78.492 24.0413 78.3171 23.8664L73.7873 19.3366C73.4859 19.0352 72.9898 19.033 72.6851 19.3377C72.3782 19.6446 72.3793 20.1363 72.6829 20.4399L76.7419 24.4989Z" fill="#0A123E" fill-opacity="0.6"/>
<defs>
<filter id="filter0_d" x="0" y="0" width="107" height="51" filterUnits="userSpaceOnUse" color-interpolation-filters="sRGB">
<feFlood flood-opacity="0" result="BackgroundImageFix"/>
<feColorMatrix in="SourceAlpha" type="matrix" values="0 0 0 0 0 0 0 0 0 0 0 0 0 0 0 0 0 0 127 0"/>
<feOffset dx="1" dy="2"/>
<feGaussianBlur stdDeviation="2"/>
<feColorMatrix type="matrix" values="0 0 0 0 0 0 0 0 0 0 0 0 0 0 0 0 0 0 0.05 0"/>
<feBlend mode="normal" in2="BackgroundImageFix" result="effect1_dropShadow"/>
<feBlend mode="normal" in="SourceGraphic" in2="effect1_dropShadow" result="shape"/>
</filter>
</defs>
</svg>
