<svg width="15" height="15" viewBox="0 0 15 15" fill="none" xmlns="http://www.w3.org/2000/svg">
<path d="M6.93148 0.15539C5.42278 0.31064 4.19278 0.778939 3.04603 1.63544C2.68393 1.90559 1.90228 2.68724 1.63213 3.04934C0.853327 4.09529 0.376327 5.25929 0.186577 6.58979C0.137677 6.92894 0.137677 8.06114 0.186577 8.40029C0.376327 9.73379 0.856177 10.9092 1.63498 11.9409C1.90513 12.3001 2.45398 12.8691 2.82763 13.1766C4.30768 14.395 6.25603 14.9986 8.13838 14.8233C9.84553 14.6625 11.3715 13.9612 12.6045 12.7686C13.8834 11.527 14.6535 9.92354 14.8201 8.14169C14.9955 6.25934 14.3919 4.31084 13.1734 2.83079C12.0037 1.41104 10.3801 0.49439 8.52643 0.20984C8.23618 0.16679 7.18438 0.12944 6.93148 0.15539ZM11.2767 4.51484C11.6331 4.70159 11.7882 5.12699 11.6272 5.48339C11.5467 5.66159 6.89398 10.3258 6.67558 10.4464C6.48298 10.5528 6.18988 10.5585 6.01168 10.4637C5.94553 10.4292 5.35063 9.85439 4.62943 9.12734C3.62353 8.11859 3.35338 7.83119 3.32473 7.74509C3.30463 7.68179 3.29593 7.54679 3.30178 7.43759C3.31618 7.19039 3.42253 7.00364 3.62368 6.87719C3.73858 6.80819 3.80188 6.79094 3.97138 6.78239C4.30183 6.76514 4.33063 6.78524 5.39398 7.85144L6.32803 8.78834L8.45458 6.66449C10.2679 4.85399 10.6014 4.53494 10.7106 4.49474C10.8687 4.44014 11.1474 4.44884 11.2767 4.51484Z" fill="#18A501"/>
</svg>
