<svg width="21" height="21" viewBox="0 0 21 21" fill="none" xmlns="http://www.w3.org/2000/svg">
<path d="M20.5149 20.6199C20.2881 20.8467 19.9206 20.8467 19.6938 20.6199L0.380122 1.30619C0.153322 1.07939 0.153322 0.711891 0.380122 0.485091L0.485122 0.380091C0.711922 0.153291 1.07942 0.153291 1.30622 0.380091L20.6199 19.6938C20.8467 19.9206 20.8467 20.2881 20.6199 20.5149L20.5149 20.6199Z" fill="black"/>
<path d="M0.380122 20.5149C0.153322 20.2881 0.153322 19.9206 0.380122 19.6938L19.6938 0.380091C19.9206 0.153291 20.2881 0.153291 20.5149 0.380091L20.6199 0.485091C20.8467 0.711891 20.8467 1.07939 20.6199 1.30619L1.30622 20.6199C1.07942 20.8467 0.711922 20.8467 0.485122 20.6199L0.380122 20.5149Z" fill="black"/>
</svg>
